<svg version="1.1" id="Layer_1" xmlns="http://www.w3.org/2000/svg" xmlns:xlink="http://www.w3.org/1999/xlink" x="0px" y="0px"
	 width="100%" viewBox="0 0 512 512" enable-background="new 0 0 512 512" xml:space="preserve">
<path fill="#FF0000" opacity="1.000000" stroke="none" 
	d="
M263.000000,513.000000 
	C259.307098,513.000000 255.614182,513.000000 251.370148,512.654846 
	C248.573471,510.735870 246.036163,509.454315 244.124695,507.545929 
	C180.940033,444.462738 117.815254,381.319550 54.681591,318.185272 
	C53.858170,317.361847 52.932476,316.617767 52.225895,315.704163 
	C48.051159,310.306152 47.530388,304.275818 50.036274,298.174103 
	C52.547710,292.058868 57.225739,288.923950 64.136925,288.953430 
	C90.955276,289.067841 117.774689,289.071075 144.593109,288.964722 
	C155.197769,288.922638 160.029114,284.297180 160.023697,273.491547 
	C159.981033,188.370895 159.959595,103.250122 160.131561,18.129795 
	C160.139313,14.288867 161.603317,10.232443 163.270676,6.691546 
	C164.348495,4.402614 167.034607,2.870991 169.000000,1.000001 
	C227.020889,1.000000 285.041779,1.000000 343.622437,1.345753 
	C353.163086,5.164888 354.955292,12.783986 354.961487,21.099489 
	C355.024475,105.755478 354.999969,190.411530 355.000000,275.067566 
	C355.000000,276.234100 354.938660,277.404480 355.011658,278.566437 
	C355.251190,282.378082 359.327057,287.509003 362.728210,287.955933 
	C366.607025,288.465668 370.525635,288.941711 374.428589,288.955170 
	C399.758453,289.042572 425.088776,288.982605 450.418823,289.038208 
	C452.152863,289.041992 453.942505,289.407074 455.609924,289.918396 
	C466.897308,293.379761 467.398224,310.360382 460.411133,317.306091 
	C398.127625,379.220490 336.116302,441.408569 273.972534,503.463776 
	C270.551849,506.879669 266.668182,509.831940 263.000000,513.000000 
z"/>
<path fill="#FF0000" opacity="0.000000" stroke="none" 
	d="
M168.531342,1.000001 
	C167.034607,2.870991 164.348495,4.402614 163.270676,6.691546 
	C161.603317,10.232443 160.139313,14.288867 160.131561,18.129795 
	C159.959595,103.250122 159.981033,188.370895 160.023697,273.491547 
	C160.029114,284.297180 155.197769,288.922638 144.593109,288.964722 
	C117.774689,289.071075 90.955276,289.067841 64.136925,288.953430 
	C57.225739,288.923950 52.547710,292.058868 50.036274,298.174103 
	C47.530388,304.275818 48.051159,310.306152 52.225895,315.704163 
	C52.932476,316.617767 53.858170,317.361847 54.681591,318.185272 
	C117.815254,381.319550 180.940033,444.462738 244.124695,507.545929 
	C246.036163,509.454315 248.573471,510.735870 250.909500,512.654846 
	C167.705887,513.000000 84.411766,513.000000 1.058822,513.000000 
	C1.058822,342.452881 1.058822,171.905731 1.058822,1.000000 
	C56.687046,1.000000 112.374863,1.000000 168.531342,1.000001 
z"/>
<path fill="#000000" opacity="0.000000" stroke="none" 
	d="
M263.468628,513.000000 
	C266.668182,509.831940 270.551849,506.879669 273.972534,503.463776 
	C336.116302,441.408569 398.127625,379.220490 460.411133,317.306091 
	C467.398224,310.360382 466.897308,293.379761 455.609924,289.918396 
	C453.942505,289.407074 452.152863,289.041992 450.418823,289.038208 
	C425.088776,288.982605 399.758453,289.042572 374.428589,288.955170 
	C370.525635,288.941711 366.607025,288.465668 362.728210,287.955933 
	C359.327057,287.509003 355.251190,282.378082 355.011658,278.566437 
	C354.938660,277.404480 355.000000,276.234100 355.000000,275.067566 
	C354.999969,190.411530 355.024475,105.755478 354.961487,21.099489 
	C354.955292,12.783986 353.163086,5.164888 344.091125,1.345753 
	C400.306854,1.000000 456.613739,1.000000 512.960327,1.000000 
	C512.960327,171.559982 512.960327,342.119995 512.960327,513.000000 
	C429.979370,513.000000 346.958344,513.000000 263.468628,513.000000 
z"/>
</svg>