<?xml version="1.0" standalone="no"?>
<!DOCTYPE svg PUBLIC "-//W3C//DTD SVG 20010904//EN"
 "http://www.w3.org/TR/2001/REC-SVG-20010904/DTD/svg10.dtd">
<svg version="1.0" xmlns="http://www.w3.org/2000/svg"
 width="512.000000pt" height="512.000000pt" viewBox="0 0 512.000000 512.000000"
 preserveAspectRatio="xMidYMid meet">

<g transform="translate(0.000000,512.000000) scale(0.100000,-0.100000)"
fill="#008000" stroke="none">
<path d="M2505 5101 c-16 -10 -512 -502 -1102 -1092 -855 -857 -1072 -1080
-1078 -1106 -9 -44 18 -97 60 -117 29 -14 107 -16 624 -16 l591 0 0 -1335 c0
-1132 2 -1341 14 -1370 29 -69 -22 -66 962 -63 l886 3 29 33 29 32 0 1350 0
1350 591 0 c517 0 595 2 624 16 42 20 69 73 60 117 -6 26 -225 250 -1083 1109
-592 593 -1091 1085 -1108 1093 -42 20 -63 19 -99 -4z"/>
</g>
</svg>
